<?xml version="1.0" encoding="UTF-8" standalone="no"?>
<!-- Created with Inkscape (http://www.inkscape.org/) -->

<svg
   xmlns:dc="http://purl.org/dc/elements/1.1/"
   xmlns:cc="http://creativecommons.org/ns#"
   xmlns:rdf="http://www.w3.org/1999/02/22-rdf-syntax-ns#"
   xmlns:svg="http://www.w3.org/2000/svg"
   xmlns="http://www.w3.org/2000/svg"
   version="1.1"
   width="225"
   height="225"
   id="svg3039"
   xml:space="preserve"><metadata
     id="metadata3045"><rdf:RDF><cc:Work
         rdf:about=""><dc:format>image/svg+xml</dc:format><dc:type
           rdf:resource="http://purl.org/dc/dcmitype/StillImage" /><dc:title></dc:title></cc:Work></rdf:RDF></metadata><defs
     id="defs3043" /><g
     transform="matrix(1.25,0,0,-1.25,0,225)"
     id="g3047"><g
       transform="matrix(0.95238095,0,0,-0.95238095,-257.14286,-205.71429)"
       id="g3049"><path
         d="m 346.5,-405 c 0,0 18,18 18,18 0,0 18,-18 18,-18 0,0 0,36 0,36 0,0 18,-18 18,-18 0,0 0,36 0,36 0,0 -18,18 -18,18 0,0 -18,-18 -18,-18 0,0 -18,18 -18,18 0,0 -18,-18 -18,-18 0,0 0,-36 0,-36 0,0 18,18 18,18 0,0 0,-36 0,-36 z"
         id="path3051"
         style="fill:#1e59ae;fill-opacity:1;fill-rule:nonzero;stroke:none" /><path
         d="m 312.25391,-375.25391 c 0,0 -11.40186,-11.40234 -11.40186,-11.40234 0,0 0,12.72852 0,12.72852 0,0 -12.72803,0 -12.72803,0 0,0 11.40235,11.40136 11.40235,11.40136 0,0 -11.52637,11.52637 -11.52637,11.52637 0,0 36,0 36,0 0,0 0,-36 0,-36 0,0 -11.74609,11.74609 -11.74609,11.74609 z"
         id="path3053"
         style="fill:#1e59ae;fill-opacity:1;fill-rule:nonzero;stroke:none" /><path
         d="m 270,-292.5 c 0,0 18,-18 18,-18 0,0 -18,-18 -18,-18 0,0 36,0 36,0 0,0 -18,-18 -18,-18 0,0 36,0 36,0 0,0 18,18 18,18 0,0 -18,18 -18,18 0,0 18,18 18,18 0,0 -18,18 -18,18 0,0 -36,0 -36,0 0,0 18,-18 18,-18 0,0 -36,0 -36,0 z"
         id="path3055"
         style="fill:#1e59ae;fill-opacity:1;fill-rule:nonzero;stroke:none" /><path
         d="m 324,-270 c 0,0 -36,0 -36,0 0,0 11.74609,11.74609 11.74609,11.74609 0,0 -11.40234,11.40235 -11.40234,11.40235 0,0 12.72803,0 12.72803,0 0,0 0,12.72754 0,12.72754 0,0 11.40234,-11.40235 11.40234,-11.40235 0,0 11.52588,11.52637 11.52588,11.52637 0,0 0,-36 0,-36 z"
         id="path3057"
         style="fill:#1e59ae;fill-opacity:1;fill-rule:nonzero;stroke:none" /><path
         d="m 382.5,-216 c 0,0 -18,-18 -18,-18 0,0 -18,18 -18,18 0,0 0,-36 0,-36 0,0 -18,18 -18,18 0,0 0,-36 0,-36 0,0 18,-18 18,-18 0,0 18,18 18,18 0,0 18,-18 18,-18 0,0 18,18 18,18 0,0 0,36 0,36 0,0 -18,-18 -18,-18 0,0 0,36 0,36 z"
         id="path3059"
         style="fill:#1e59ae;fill-opacity:1;fill-rule:nonzero;stroke:none" /><path
         d="m 441,-270 c 0,0 -36,0 -36,0 0,0 0,36 0,36 0,0 11.74609,-11.74609 11.74609,-11.74609 0,0 11.40235,11.40234 11.40235,11.40234 0,0 0,-12.72852 0,-12.72852 0,0 12.72754,0 12.72754,0 0,0 -11.40235,-11.40136 -11.40235,-11.40136 C 429.47363,-258.47363 441,-270 441,-270 z"
         id="path3061"
         style="fill:#1e59ae;fill-opacity:1;fill-rule:nonzero;stroke:none" /><path
         d="m 459,-328.5 c 0,0 -18,18 -18,18 0,0 18,18 18,18 0,0 -36,0 -36,0 0,0 18,18 18,18 0,0 -36,0 -36,0 0,0 -18,-18 -18,-18 0,0 18,-18 18,-18 0,0 -18,-18 -18,-18 0,0 18,-18 18,-18 0,0 36,0 36,0 0,0 -18,18 -18,18 0,0 36,0 36,0 z"
         id="path3063"
         style="fill:#1e59ae;fill-opacity:1;fill-rule:nonzero;stroke:none" /><path
         d="m 429.25391,-362.74609 c 0,0 11.40234,-11.40235 11.40234,-11.40235 0,0 -12.72852,0 -12.72852,0 0,0 0,-12.72754 0,-12.72754 0,0 -11.40136,11.40235 -11.40136,11.40235 C 416.52637,-375.47363 405,-387 405,-387 c 0,0 0,36 0,36 0,0 36,0 36,0 0,0 -11.74609,-11.74609 -11.74609,-11.74609 z"
         id="path3065"
         style="fill:#1e59ae;fill-opacity:1;fill-rule:nonzero;stroke:none" /></g></g></svg>